<?xml version="1.0" standalone="no"?>
<!DOCTYPE svg PUBLIC "-//W3C//DTD SVG 20010904//EN"
 "http://www.w3.org/TR/2001/REC-SVG-20010904/DTD/svg10.dtd">
<svg version="1.0" xmlns="http://www.w3.org/2000/svg"
 width="500.000000pt" height="500.000000pt" viewBox="0 0 500.000000 500.000000"
 preserveAspectRatio="xMidYMid meet">

<g transform="translate(0.000000,500.000000) scale(0.100000,-0.100000)"
fill="#000000" stroke="none">
<path d="M0 2500 l0 -2500 2500 0 2500 0 0 2500 0 2500 -2500 0 -2500 0 0
-2500z m2525 1561 c3 -5 5 -67 6 -138 l0 -129 49 -17 c27 -10 62 -29 78 -42
36 -30 44 -31 66 -6 17 18 17 21 1 45 -17 26 -17 26 46 91 65 68 91 79 109 45
9 -16 4 -26 -25 -59 -32 -35 -35 -42 -23 -60 11 -19 7 -26 -46 -80 -57 -58
-58 -60 -47 -92 30 -85 -10 -242 -80 -314 -18 -20 -29 -41 -29 -60 0 -32 -20
-95 -31 -95 -4 0 -5 -8 -2 -19 3 -10 -3 -33 -11 -50 -9 -17 -16 -33 -16 -37 2
-15 -52 -45 -77 -42 -31 3 -82 68 -87 108 -1 14 -10 39 -19 57 -9 18 -17 47
-17 66 0 25 -9 44 -32 69 -39 40 -87 152 -95 217 -3 28 1 63 10 88 l14 42 -53
52 c-53 53 -64 75 -44 95 7 7 -2 21 -25 44 -37 35 -43 58 -23 78 19 19 26 15
94 -50 64 -61 77 -90 49 -106 -13 -7 -12 -12 9 -31 l25 -23 43 30 c24 17 62
36 86 43 l43 12 -7 112 c-8 136 -3 165 31 165 13 0 26 -4 30 -9z m-478 -910
c56 -11 130 -31 163 -44 87 -36 221 -119 210 -131 -6 -5 -542 126 -620 152
-36 12 -56 25 -59 37 -3 17 4 18 100 12 57 -4 150 -16 206 -26z m1213 10 c0
-14 -10 -21 -37 -26 -21 -4 -43 -11 -49 -16 -6 -5 -134 -38 -285 -74 -151 -36
-282 -68 -291 -71 -37 -11 -16 13 49 56 138 90 333 143 546 148 60 2 67 0 67
-17z m-1180 -175 l385 -93 0 -591 c0 -325 -3 -593 -7 -597 -12 -12 -759 176
-780 197 -17 17 -18 48 -18 598 0 546 1 580 18 580 9 0 190 -42 402 -94z
m1258 -487 c2 -538 1 -578 -15 -597 -14 -16 -104 -41 -396 -112 -208 -51 -381
-89 -385 -85 -4 4 -9 272 -10 595 l-4 589 29 7 c264 68 743 182 758 181 20 -2
20 -10 23 -578z m-1569 -944 c2 -11 0 -17 -4 -13 -16 15 -64 -23 -85 -67 -24
-49 -21 -113 6 -136 12 -10 14 -2 14 50 0 34 4 60 9 57 4 -3 13 6 20 20 9 20
9 24 -1 18 -7 -4 -6 1 3 10 26 28 78 24 107 -9 21 -25 24 -36 20 -86 -3 -41
-12 -69 -32 -100 -25 -37 -26 -43 -12 -51 9 -5 16 -15 16 -23 0 -19 -54 -13
-79 9 -9 9 -28 16 -40 16 -59 0 -120 71 -121 140 0 48 22 103 53 133 18 17 24
25 15 18 -10 -8 -18 -11 -18 -7 0 3 15 15 33 26 41 26 90 23 96 -5z m540 16
c16 -10 8 -41 -11 -41 -10 0 -12 -24 -6 -112 3 -62 7 -123 7 -135 1 -13 7 -23
15 -23 8 0 14 -8 13 -18 -1 -16 -11 -19 -63 -21 -66 -2 -86 9 -55 31 17 12 19
29 22 146 4 120 2 132 -13 132 -10 0 -18 7 -18 15 0 27 78 46 109 26z m265 -7
c27 -26 19 -49 -47 -136 -35 -46 -71 -97 -81 -115 l-16 -32 63 6 c50 4 65 2
76 -11 27 -32 7 -43 -95 -50 -88 -6 -100 -5 -112 11 -26 36 19 139 97 221 25
27 39 39 30 28 -31 -40 -31 -51 -1 -16 16 19 28 39 25 43 -3 5 -35 7 -72 5
-60 -3 -66 -1 -66 17 0 38 166 63 199 29z m-402 -34 c10 -48 -7 -289 -21 -303
-8 -8 -16 -9 -29 -1 -13 8 -18 30 -22 83 l-5 73 -29 -66 c-32 -76 -67 -102
-117 -91 -44 10 -69 56 -69 126 0 77 11 150 21 143 5 -3 6 2 3 10 -10 25 15
18 26 -6 5 -13 14 -63 19 -111 5 -49 14 -94 20 -100 23 -23 61 36 101 158 34
104 47 127 73 123 15 -2 23 -13 29 -38z m872 18 c14 -23 30 -108 41 -226 7
-68 -3 -92 -36 -92 -27 0 -36 25 -44 125 l-8 90 -36 -110 c-28 -85 -40 -111
-55 -114 -29 -5 -43 22 -57 106 -7 41 -15 70 -19 66 -4 -4 -16 -32 -26 -61
-21 -60 -39 -81 -55 -65 -15 15 -3 92 29 183 24 67 30 75 54 78 33 4 42 -12
62 -107 14 -71 12 -73 52 43 35 103 68 130 98 84z m261 -8 c0 -24 -2 -25 -72
-25 -40 0 -73 -3 -73 -7 0 -5 0 -40 0 -79 0 -64 2 -70 18 -64 9 4 36 10 59 12
34 4 44 2 49 -11 8 -22 -13 -46 -42 -46 -12 0 -35 -5 -51 -12 -26 -11 -24 -12
42 -20 38 -5 74 -13 79 -18 19 -19 -15 -38 -85 -44 -56 -6 -75 -4 -95 9 -24
16 -25 16 -22 163 l3 147 35 12 c19 7 62 11 95 10 57 -2 60 -3 60 -27z m84
-116 l3 -126 -23 4 c-24 3 -24 5 -24 118 0 125 7 162 28 141 8 -8 13 -57 16
-137z m-1 -167 c4 -20 -25 -34 -40 -19 -15 15 -1 44 19 40 10 -2 19 -11 21
-21z m-1422 -209 c1 -26 4 -54 7 -62 4 -9 2 -16 -3 -16 -6 0 -10 9 -10 19 0
31 -18 34 -23 4 -2 -16 -5 3 -6 40 -1 60 1 68 17 65 13 -3 17 -14 18 -50z m97
45 c-7 -2 -13 -16 -13 -29 0 -13 6 -24 13 -25 10 0 10 -2 0 -6 -7 -2 -13 -15
-13 -28 0 -13 6 -26 13 -28 7 -3 5 -6 -5 -6 -15 -1 -18 8 -18 64 0 56 3 65 18
64 10 0 12 -3 5 -6z m101 -15 c9 -43 11 -106 4 -102 -5 3 -8 12 -8 20 0 23
-18 16 -23 -8 -4 -20 -4 -19 -6 5 -1 18 4 27 14 27 10 0 15 10 14 33 l-1 32
-8 -30 c-8 -30 -8 -30 -9 8 -1 40 16 51 23 15z m111 -43 c0 -49 -3 -60 -17
-63 -16 -3 -18 5 -18 63 0 58 2 66 18 63 14 -3 17 -14 17 -63z m72 -32 c-2
-21 -4 -6 -4 32 0 39 2 55 4 38 2 -18 2 -50 0 -70z m86 35 c-8 -84 -13 -86
-13 -5 0 37 4 67 10 67 6 0 7 -24 3 -62z m32 -66 c-10 -11 -25 22 -24 53 2 30
2 30 9 -5 7 -32 8 -29 11 25 l3 60 3 -64 c2 -35 1 -66 -2 -69z m105 124 c0 -2
3 -11 6 -20 3 -9 1 -16 -5 -16 -6 0 -11 8 -11 17 0 12 -3 14 -11 6 -13 -13 -8
-100 6 -93 6 3 9 11 9 18 -1 6 3 12 8 12 5 0 8 -10 6 -22 -2 -15 -10 -23 -23
-23 -16 0 -21 8 -23 39 -4 52 5 86 23 86 8 0 15 -2 15 -4z m187 -27 c1 -22 1
-22 -4 -1 -9 42 -23 22 -23 -33 0 -55 15 -75 23 -32 4 19 4 18 6 -5 1 -22 -4
-28 -19 -28 -18 0 -20 7 -20 58 0 32 3 62 7 66 13 12 28 0 30 -25z m96 -91 c8
-5 6 -8 -5 -8 -16 0 -18 9 -16 68 l2 67 3 -60 c2 -33 10 -63 16 -67z m87 2 c5
0 11 28 13 63 l3 62 2 -68 c2 -60 0 -68 -15 -65 -15 3 -18 14 -19 63 l0 60 3
-57 c2 -32 8 -58 13 -58z m125 55 c0 -49 -3 -60 -17 -63 -16 -3 -18 5 -18 63
0 58 2 66 18 63 14 -3 17 -14 17 -63z"/>
<path d="M1756 1448 c-9 -35 -7 -116 3 -123 12 -7 51 42 51 64 0 14 2 14 10 1
15 -23 12 5 -4 45 -17 41 -50 48 -60 13z"/>
<path d="M1640 1295 c13 -14 26 -25 28 -25 3 0 -5 11 -18 25 -13 14 -26 25
-28 25 -3 0 5 -11 18 -25z"/>
<path d="M2380 1530 c0 -6 7 -10 15 -10 8 0 15 2 15 4 0 2 -7 6 -15 10 -8 3
-15 1 -15 -4z"/>
<path d="M2370 1276 c0 -19 3 -37 8 -40 4 -2 6 13 4 35 -5 48 -12 51 -12 5z"/>
<path d="M2116 1543 c-6 -14 -5 -15 5 -6 7 7 10 15 7 18 -3 3 -9 -2 -12 -12z"/>
<path d="M1907 1281 c10 -19 24 -36 32 -39 8 -3 6 3 -5 15 -11 11 -25 28 -32
39 -7 10 -5 4 5 -15z"/>
<path d="M2110 1263 c0 -6 8 -17 18 -24 16 -13 16 -13 2 6 -8 11 -16 22 -17
24 -2 2 -3 0 -3 -6z"/>
<path d="M2990 1545 c-7 -9 -11 -17 -9 -20 3 -2 10 5 17 15 14 24 10 26 -8 5z"/>
<path d="M2809 1503 c-13 -16 -12 -17 4 -4 16 13 21 21 13 21 -2 0 -10 -8 -17
-17z"/>
<path d="M3020 1273 c0 -6 8 -17 18 -24 16 -13 16 -13 2 6 -8 11 -16 22 -17
24 -2 2 -3 0 -3 -6z"/>
<path d="M2880 1251 c0 -6 4 -13 10 -16 6 -3 7 1 4 9 -7 18 -14 21 -14 7z"/>
<path d="M1940 1060 c0 -16 5 -30 10 -30 6 0 10 14 10 30 0 17 -4 30 -10 30
-5 0 -10 -13 -10 -30z"/>
<path d="M2250 1035 c0 -30 5 -55 10 -55 6 0 10 25 10 55 0 30 -4 55 -10 55
-5 0 -10 -25 -10 -55z"/>
<path d="M3040 1066 c0 -14 5 -26 10 -26 6 0 10 9 10 19 0 11 -4 23 -10 26 -6
4 -10 -5 -10 -19z"/>
<path d="M3040 1005 c0 -14 5 -25 10 -25 6 0 10 11 10 25 0 14 -4 25 -10 25
-5 0 -10 -11 -10 -25z"/>
</g>
</svg>
